<svg xmlns="http://www.w3.org/2000/svg" version="1.1" xmlns:xlink="http://www.w3.org/1999/xlink" xmlns:svgjs="http://svgjs.dev/svgjs" width="128" height="128" viewBox="0 0 128 128"><g transform="matrix(0.8046875,0,0,0.8046875,12.41184074821259,12.814873242367177)"><svg viewBox="0 0 98 98" data-background-color="#ffffff" preserveAspectRatio="xMidYMid meet" height="127" width="128" xmlns="http://www.w3.org/2000/svg" xmlns:xlink="http://www.w3.org/1999/xlink"><g id="tight-bounds" transform="matrix(1,0,0,1,0.08387967645792571,0.08387967645792571)"><svg viewBox="0 0 97.83224064708415 97.83224064708415" height="97.83224064708415" width="97.83224064708415"><g><svg></svg></g><g><svg viewBox="0 0 97.83224064708415 97.83224064708415" height="97.83224064708415" width="97.83224064708415"><g><path d="M0 48.916c0-27.016 21.9-48.916 48.916-48.916 27.016 0 48.916 21.9 48.916 48.916 0 27.016-21.9 48.916-48.916 48.916-27.016 0-48.916-21.9-48.916-48.916zM48.916 93.244c24.481 0 44.328-19.846 44.328-44.328 0-24.481-19.846-44.328-44.328-44.327-24.481 0-44.328 19.846-44.327 44.327 0 24.481 19.846 44.328 44.327 44.328z" data-fill-palette-color="tertiary" fill="#099fef" stroke="transparent"></path><ellipse rx="46.95947551060039" ry="46.95947551060039" cx="48.916120323542074" cy="48.916120323542074" fill="#099fef" stroke="transparent" stroke-width="0" fill-opacity="1" data-fill-palette-color="tertiary"></ellipse></g><g transform="matrix(1,0,0,1,23.475720325088343,23.47539391502934)"><svg viewBox="0 0 50.88079999690746 50.88145281702547" height="50.88145281702547" width="50.88079999690746"><g><svg viewBox="0 0 50.88079999690746 50.88145281702547" height="50.88145281702547" width="50.88079999690746"><g><svg viewBox="0 0 50.88079999690746 50.88145281702547" height="50.88145281702547" width="50.88079999690746"><g id="textblocktransform"><svg viewBox="0 0 50.88079999690746 50.88145281702547" height="50.88145281702547" width="50.88079999690746" id="textblock"><g><svg viewBox="0 0 50.88079999690746 50.88145281702547" height="50.88145281702547" width="50.88079999690746"><g><svg viewBox="0 0 50.88079999690746 50.88145281702547" height="50.88145281702547" width="50.88079999690746"><g><svg xmlns="http://www.w3.org/2000/svg" xmlns:xlink="http://www.w3.org/1999/xlink" version="1.1" x="0" y="0" viewBox="6.129 5.951 77.94 77.941" enable-background="new 0 0 90 90" xml:space="preserve" height="50.88145281702547" width="50.88079999690746" class="icon-icon-0" data-fill-palette-color="quaternary" id="icon-0"><g fill="#ffffff" data-fill-palette-color="quaternary"><path d="M45.099 5.951C23.611 5.951 6.129 23.433 6.129 44.922S23.61 83.892 45.099 83.892 84.069 66.41 84.069 44.922C84.069 23.433 66.587 5.951 45.099 5.951M45.099 81.214C25.087 81.214 8.807 64.934 8.807 44.922S25.088 8.629 45.099 8.629 81.392 24.911 81.392 44.922C81.393 64.934 65.111 81.214 45.099 81.214" fill="#ffffff" data-fill-palette-color="quaternary"></path></g><path d="M77.794 50.402A1.34 1.34 0 0 0 76.015 51.048C74.738 53.785 71.18 57.108 66.093 59.824A43.4 43.4 0 0 0 68.723 46.259H77.005A1.339 1.339 0 1 0 77.005 43.582H68.745A48.7 48.7 0 0 0 66.705 31.057C70.931 33.737 74.19 36.993 76.07 40.236A1.33 1.33 0 0 0 77.898 40.724C78.538 40.354 78.756 39.535 78.385 38.894 75.929 34.652 71.339 30.39 65.382 27.226 62.353 19.525 57.718 13.654 53.269 11.579A1.338 1.338 0 1 0 52.136 14.005C55.149 15.409 58.869 19.571 61.711 25.499A43.5 43.5 0 0 0 46.437 22.208V13.016A1.338 1.338 0 1 0 43.761 13.016V22.184C38.436 22.339 33.306 23.407 28.748 25.044 31.559 19.361 35.164 15.373 38.098 14.005A1.339 1.339 0 0 0 36.966 11.579C32.657 13.589 28.176 19.162 25.147 26.507 18.567 29.505 13.627 33.658 11.758 37.661A1.34 1.34 0 0 0 14.184 38.794C15.436 36.11 18.878 32.863 23.806 30.177 22.48 34.321 21.626 38.874 21.49 43.583H13.195A1.339 1.339 0 0 0 13.195 46.26H21.513A43.4 43.4 0 0 0 23.992 59.409C19.978 57.029 16.721 54.013 14.726 50.565A1.339 1.339 0 0 0 12.409 51.905C15.153 56.646 19.836 60.602 25.603 63.368 28.829 70.222 33.531 75.505 38.201 78.208A1.336 1.336 0 0 0 40.029 77.721 1.336 1.336 0 0 0 39.542 75.893C35.907 73.789 32.263 69.947 29.425 64.957 33.848 66.559 38.727 67.498 43.761 67.642V76.828A1.339 1.339 0 1 0 46.437 76.828V67.659C51.498 67.512 56.38 66.538 60.766 65.036 57.935 69.987 54.31 73.799 50.693 75.893A1.338 1.338 0 1 0 52.036 78.208C56.661 75.531 61.311 70.321 64.535 63.564 71.371 60.55 76.523 56.287 78.44 52.18A1.336 1.336 0 0 0 77.794 50.402M63.244 29.116A45.6 45.6 0 0 1 66.069 43.583H46.438V24.886A40.85 40.85 0 0 1 63.244 29.116M27.219 28.521A45.4 45.4 0 0 1 43.761 24.863V43.582H24.167A45.5 45.5 0 0 1 27.219 28.521M27.581 61.273A40.9 40.9 0 0 1 24.19 46.259H43.761V64.963C38.016 64.784 32.418 63.457 27.581 61.273M46.438 64.98V46.26H66.046A40.9 40.9 0 0 1 62.557 61.501 45.4 45.4 0 0 1 46.438 64.98" fill="#ffffff" data-fill-palette-color="quaternary"></path></svg></g></svg></g></svg></g></svg></g></svg></g><g></g></svg></g></svg></g></svg></g><defs></defs></svg><rect width="97.83224064708415" height="97.83224064708415" fill="none" stroke="none" visibility="hidden"></rect></g></svg></g></svg>