<svg xmlns="http://www.w3.org/2000/svg" version="1.1" xmlns:xlink="http://www.w3.org/1999/xlink" xmlns:svgjs="http://svgjs.dev/svgjs" width="2000" height="2000" viewBox="0 0 2000 2000"><g transform="matrix(1,0,0,1,-0.28443113772425477,-0.28443113772459583)"><svg viewBox="0 0 334 334" data-background-color="#ffffff" preserveAspectRatio="xMidYMid meet" height="2000" width="2000" xmlns="http://www.w3.org/2000/svg" xmlns:xlink="http://www.w3.org/1999/xlink"><g id="tight-bounds" transform="matrix(1,0,0,1,0.04749999999998522,0.04750000000001364)"><svg viewBox="0 0 333.90454557049503 333.90454557049503" height="333.90454557049503" width="333.90454557049503"><g><svg></svg></g><g><svg viewBox="0 0 333.90454557049503 333.90454557049503" height="333.90454557049503" width="333.90454557049503"><g><path d="M0 166.952c0-92.205 74.747-166.952 166.952-166.952 92.205 0 166.952 74.747 166.953 166.952 0 92.205-74.747 166.952-166.953 166.953-92.205 0-166.952-74.747-166.952-166.953zM166.952 323.227c86.308 0 156.274-69.966 156.275-156.275 0-86.308-69.966-156.274-156.275-156.274-86.308 0-156.274 69.966-156.274 156.274 0 86.308 69.966 156.274 156.274 156.275z" data-fill-palette-color="tertiary" fill="#0d9fef" stroke="transparent"></path><ellipse rx="160.27418187383762" ry="160.27418187383762" cx="166.95227278524752" cy="166.95227278524752" fill="#0d9fef" stroke="transparent" stroke-width="0" fill-opacity="1" data-fill-palette-color="tertiary"></ellipse></g><g transform="matrix(1,0,0,1,94.11418285755603,71.17305217166896)"><svg viewBox="0 0 145.67617985538297 191.55844122715712" height="191.55844122715712" width="145.67617985538297"><g><svg viewBox="0 0 145.67617985538297 191.55844122715712" height="191.55844122715712" width="145.67617985538297"><g><svg viewBox="0 0 145.67617985538297 191.55844122715712" height="191.55844122715712" width="145.67617985538297"><g><svg viewBox="0 0 145.67617985538297 191.55844122715712" height="191.55844122715712" width="145.67617985538297"><g id="textblocktransform"><svg viewBox="0 0 145.67617985538297 191.55844122715712" height="191.55844122715712" width="145.67617985538297" id="textblock"><g><svg viewBox="0 0 145.67617985538297 191.55844122715712" height="191.55844122715712" width="145.67617985538297"><g transform="matrix(1,0,0,1,0,0)"><svg width="145.67617985538297" viewBox="1.25 -33.15 25.4 33.4" height="191.55844122715712" data-palette-color="#ffffff"><path d="M26.65-6.53L26.65-6.53Q25.4-4.75 23.63-3.21 21.85-1.68 19.59-0.71 17.32 0.25 14.53 0.25L14.53 0.25Q11.38 0.25 8.91-1.06 6.45-2.38 4.74-4.7 3.03-7.03 2.14-10.11 1.25-13.2 1.25-16.75L1.25-16.75Q1.25-21.38 2.78-25.09 4.3-28.8 7.29-30.98 10.28-33.15 14.58-33.15L14.58-33.15Q18.18-33.15 21.23-31.55 24.28-29.95 25.85-27.1L25.85-27.1Q25.45-26.65 24.73-26.05 24-25.45 23.26-24.91 22.53-24.38 22-24.05L22-24.05Q21.83-24.43 21.36-25.18 20.9-25.93 20.04-26.7 19.18-27.48 17.8-28.04 16.43-28.6 14.43-28.6L14.43-28.6Q12.98-28.6 11.6-27.91 10.23-27.23 9.13-25.81 8.03-24.4 7.38-22.16 6.73-19.93 6.73-16.85L6.73-16.85Q6.73-14.33 7.33-12.13 7.93-9.93 8.97-8.28 10.03-6.63 11.43-5.7 12.83-4.78 14.45-4.78L14.45-4.78Q16.53-4.78 18.16-5.61 19.8-6.45 21.01-7.66 22.23-8.88 23.08-9.95L23.08-9.95Q23.6-9.63 24.33-9 25.05-8.38 25.69-7.71 26.33-7.05 26.65-6.53Z" opacity="1" transform="matrix(1,0,0,1,0,0)" fill="#ffffff" class="wordmark-text-0" data-fill-palette-color="quaternary" id="text-0"></path></svg></g></svg></g></svg></g></svg></g><g></g></svg></g></svg></g></svg></g></svg></g><defs></defs></svg><rect width="333.90454557049503" height="333.90454557049503" fill="none" stroke="none" visibility="hidden"></rect></g></svg></g></svg>